<svg xmlns="http://www.w3.org/2000/svg" xmlns:xlink="http://www.w3.org/1999/xlink" viewBox="0 0 1024 1024"><defs><style>.cls-1{fill:#00abaa;}.cls-2,.cls-5{fill:#fff;}.cls-3{fill:none;}.cls-4{fill:url(#Unbenannter_Verlauf_27);}.cls-5{fill-rule:evenodd;}.cls-6{fill:#f2f9fb;}</style><linearGradient id="Unbenannter_Verlauf_27" x1="512" x2="512" y2="1024" gradientUnits="userSpaceOnUse"><stop offset="0" stop-color="#00abaa"/><stop offset="1" stop-color="#008988"/></linearGradient></defs><title>1024lgo</title><g id="save"><rect class="cls-1" x="352" y="488" width="48" height="48" rx="5" ry="5"/><path class="cls-2" d="M376.12,500.75c0-.71,0-1.41,0-2.12a.78.78,0,0,1,.88-.85h1.61a.83.83,0,0,1,.92.91c0,1.39,0,2.78,0,4.17,0,.83-.44,1-2.22,1-.86,0-1.16-.26-1.19-1s0-1.37,0-2Z"/><path class="cls-3" d="M379.3,505.26a2.07,2.07,0,0,0,2.36-2.32c0-1.85,0-3.71,0-5.56,0-.56-.19-.75-.77-.75-2.58,0-5.17,0-7.75,0s-5.27,0-7.9,0c-.58,0-.77.18-.77.75,0,1.85,0,3.71,0,5.56a2.07,2.07,0,0,0,2.36,2.32Z"/><path class="cls-2" d="M392.16,502.36a1.82,1.82,0,0,0-.49-1.13c-1.57-1.63-3.21-3.21-4.79-4.84a1.72,1.72,0,0,0-1.35-.55c-7.59,0-15.18,0-22.77,0a2.78,2.78,0,0,0-2.94,2.94c.08,4.39,0,8.79,0,13.18s0,9,0,13.55a2.49,2.49,0,0,0,2.68,2.69h26.94a2.49,2.49,0,0,0,2.69-2.68Q392.19,513.93,392.16,502.36Zm-27.66.58c0-1.85,0-3.71,0-5.56,0-.56.19-.75.77-.75,2.63,0,5.27,0,7.9,0s5.17,0,7.75,0c.58,0,.77.18.77.75,0,1.85,0,3.71,0,5.56a2.07,2.07,0,0,1-2.36,2.32H366.86A2.07,2.07,0,0,1,364.5,502.94Zm22.3,23a1,1,0,0,1-1,1H366.16a1,1,0,0,1-1-1v-2.5h21.6Zm0-3.36H365.2v-3.46h21.6Zm0-4.32H365.2v-2.5a1,1,0,0,1,1-1h19.68a1,1,0,0,1,1,1Z"/></g><g id="delete"><path class="cls-1" d="M463,488H425a5,5,0,0,0-5,5v38a5,5,0,0,0,5,5h38a5,5,0,0,0,5-5V493A5,5,0,0,0,463,488Z"/><path class="cls-2" d="M449.8,527.39l-11.63-.07a2.37,2.37,0,0,1-2.34-2.06l-3.14-23.9h22.62l-3.14,24A2.37,2.37,0,0,1,449.8,527.39Z"/><path class="cls-2" d="M455.55,498.54h-8.49v-1.46a.46.46,0,0,0,0-.18.46.46,0,0,0-.43-.29h-5.19a.46.46,0,0,0-.46.46h0v1.46h-8.49a1.22,1.22,0,0,0,0,2.44h23.1a1.22,1.22,0,0,0,0-2.44Zm-13.69-1h4.27v1h-4.27Z"/></g><g id="abacusLogo"><path class="cls-4" d="M917.33,0H106.67A106.67,106.67,0,0,0,0,106.67V917.33A106.67,106.67,0,0,0,106.67,1024H917.33A106.67,106.67,0,0,0,1024,917.33V106.67A106.67,106.67,0,0,0,917.33,0Z"/><path class="cls-5" d="M365.34,377.56a48.89,48.89,0,1,1-48.9,48.89,48.89,48.89,0,0,1,48.9-48.89"/><path class="cls-5" d="M585.33,377.56a48.89,48.89,0,1,1-48.89,48.89,48.89,48.89,0,0,1,48.89-48.89"/><path class="cls-5" d="M475.33,377.56a48.89,48.89,0,1,1-48.89,48.89,48.89,48.89,0,0,1,48.89-48.89"/><path class="cls-5" d="M768.66,377.56a48.89,48.89,0,1,1-48.89,48.89,48.89,48.89,0,0,1,48.89-48.89"/><path class="cls-5" d="M255.33,377.56a48.89,48.89,0,1,1-48.88,48.89,48.89,48.89,0,0,1,48.88-48.89"/><path class="cls-5" d="M365.34,548.67a48.88,48.88,0,1,1-48.9,48.89,48.88,48.88,0,0,1,48.9-48.89"/><path class="cls-5" d="M585.33,548.67a48.88,48.88,0,1,1-48.89,48.89,48.88,48.88,0,0,1,48.89-48.89"/><path class="cls-5" d="M475.33,548.67a48.88,48.88,0,1,1-48.89,48.89,48.89,48.89,0,0,1,48.89-48.89"/><path class="cls-5" d="M768.66,548.67a48.88,48.88,0,1,1-48.89,48.89,48.89,48.89,0,0,1,48.89-48.89"/><path class="cls-5" d="M255.33,548.67a48.88,48.88,0,1,1-48.88,48.89,48.89,48.89,0,0,1,48.88-48.89"/><path class="cls-5" d="M365.34,719.78a48.89,48.89,0,1,1-48.9,48.9,48.89,48.89,0,0,1,48.9-48.9"/><path class="cls-5" d="M585.33,719.78a48.89,48.89,0,1,1-48.89,48.9,48.89,48.89,0,0,1,48.89-48.9"/><path class="cls-5" d="M475.33,719.78a48.89,48.89,0,1,1-48.89,48.9,48.9,48.9,0,0,1,48.89-48.9"/><path class="cls-5" d="M768.66,719.78a48.89,48.89,0,1,1-48.89,48.9,48.9,48.9,0,0,1,48.89-48.9"/><path class="cls-5" d="M255.33,719.78a48.89,48.89,0,1,1-48.88,48.9,48.9,48.9,0,0,1,48.88-48.9"/><path class="cls-5" d="M365.34,206.44a48.89,48.89,0,1,1-48.9,48.89,48.89,48.89,0,0,1,48.9-48.89"/><path class="cls-5" d="M585.33,206.44a48.89,48.89,0,1,1-48.89,48.89,48.89,48.89,0,0,1,48.89-48.89"/><path class="cls-5" d="M475.33,206.44a48.89,48.89,0,1,1-48.89,48.89,48.89,48.89,0,0,1,48.89-48.89"/><path class="cls-5" d="M768.66,206.44a48.89,48.89,0,1,1-48.89,48.89,48.89,48.89,0,0,1,48.89-48.89"/><path class="cls-5" d="M255.33,206.44a48.89,48.89,0,1,1-48.88,48.89,48.89,48.89,0,0,1,48.88-48.89"/><path class="cls-5" d="M255.33,145.33H768.66c60.51,0,110,49.5,110,110v513.3c0,60.5-49.5,110-110,110H255.33c-60.5,0-110-49.5-110-110V255.33c0-60.5,49.5-110,110-110m0-24.45H768.66c73.95,0,134.45,60.5,134.45,134.44V768.67c0,73.94-60.5,134.44-134.45,134.44H255.33c-73.94,0-134.44-60.5-134.44-134.44V255.33c0-73.94,60.5-134.44,134.44-134.44"/><rect class="cls-2" x="664.77" y="145.33" width="24.45" height="733.3"/></g><g id="domeasure"><rect class="cls-1" x="303" y="488.17" width="48" height="48" rx="5" ry="5"/><path class="cls-2" d="M326.42,521.71l6.31,4.47L350,501.85l-6.31-4.47ZM349.23,502l-16.63,23.47-5.44-3.86.25-.35,1.15.82.31-.44-1.15-.82.52-.74,2.53,1.79.31-.44-2.53-1.79.52-.74,1.15.82.31-.44-1.15-.82.52-.74,2.53,1.79.31-.44-2.53-1.79.52-.74,1.15.82.31-.44-1.15-.82.52-.74,2.53,1.79.31-.44-2.53-1.79.52-.74,1.15.82.31-.44-1.15-.82.52-.74,2.53,1.79.31-.44-2.53-1.79.52-.74,1.15.82.31-.44-1.15-.82.52-.74,2.53,1.79.31-.44-2.53-1.79.52-.74,1.15.82.31-.44-1.15-.82.52-.74,2.53,1.79.31-.44-2.53-1.79.52-.74,1.15.82.31-.44-1.15-.82.52-.74,2.53,1.79.31-.44-2.53-1.79.52-.74,1.15.82.31-.44-1.15-.82.52-.74,2.53,1.79.31-.44-2.53-1.79.52-.74,1.15.82.31-.44L341,502l.52-.74L344.1,503l.31-.44-2.53-1.79.52-.74,1.15.82.31-.44-1.15-.82.52-.74,2.53,1.79.31-.44-2.53-1.79.25-.35Z"/><path class="cls-6" d="M328.82,511.9l-7.1-5.51c-.26-.2-.59.05-.59.46v3.69c0,.29-.18.53-.4.53H308.21c-.22,0-.4.24-.4.53v1.52c0,.29.18.53.4.53h12.52c.22,0,.4.24.4.53v3.69c0,.41.33.67.59.46l7.1-5.51A.64.64,0,0,0,328.82,511.9Z"/></g><g id="update"><rect class="cls-1" x="205.33" y="637.02" width="48" height="48" rx="5" ry="5"/><path class="cls-6" d="M246.43,660.76l-2.2-3.81a.85.85,0,0,0-1.46,0l-2.2,3.81a.85.85,0,0,0,.73,1.27h1.2a14.14,14.14,0,0,1-14.08,13.11h-.36a.85.85,0,0,0-.87.78l0,.51a.85.85,0,0,0,.82.91h.44A16.34,16.34,0,0,0,244.71,662h1A.85.85,0,0,0,246.43,660.76Z"/><path class="cls-6" d="M217.24,650.62h4.39a.85.85,0,0,0,.73-1.27l-.49-.84a14.13,14.13,0,0,1,18.94,5.74.85.85,0,0,0,1.11.36l.46-.22a.84.84,0,0,0,.38-1.16,16.33,16.33,0,0,0-22-6.63l-.61-1.05a.85.85,0,0,0-1.46,0l-2.2,3.81A.85.85,0,0,0,217.24,650.62Z"/><path class="cls-6" d="M222.31,671.33a.85.85,0,0,0-1.46,0l-.66,1.15A14.1,14.1,0,0,1,214.3,661a14,14,0,0,1,2.06-7.36.85.85,0,0,0-.24-1.14l-.42-.29a.84.84,0,0,0-1.2.25,16.34,16.34,0,0,0-.16,16.82,16.41,16.41,0,0,0,4.72,5.1l-.43.74a.85.85,0,0,0,.73,1.27h4.39a.85.85,0,0,0,.73-1.27Z"/></g><g id="home"><rect class="cls-1" x="155.98" y="636.68" width="48" height="48" rx="5" ry="5"/><g id="Haus"><polygon class="cls-2" points="179.98 647.65 165.22 662.42 165.22 678.92 194.75 678.92 194.75 662.42 179.98 647.65"/><polygon class="cls-2" points="196.92 663.72 199.09 661.55 179.98 642.44 160.88 661.55 163.05 663.72 179.98 646.79 196.92 663.72"/></g></g><g id="lauter"><circle class="cls-1" cx="129.48" cy="660.27" r="24"/><polygon class="cls-2" points="143.3 658.83 130.92 658.83 130.92 646.44 128.04 646.44 128.04 658.83 115.65 658.83 115.65 661.71 128.04 661.71 128.04 674.09 130.92 674.09 130.92 661.71 143.3 661.71 143.3 658.83"/></g><g id="leiser"><circle class="cls-1" cx="79.47" cy="660.27" r="24"/><rect class="cls-2" x="65.64" y="658.83" width="27.65" height="2.88"/></g><g id="playlist"><circle class="cls-1" cx="278.5" cy="611.92" r="24"/><rect class="cls-2" x="262.08" y="603.95" width="23.1" height="2.7"/><rect class="cls-2" x="262.08" y="612.77" width="23.1" height="2.7"/><rect class="cls-2" x="271.81" y="608.36" width="23.1" height="2.7"/><rect class="cls-2" x="271.81" y="617.19" width="23.1" height="2.7"/></g><g id="loop"><circle class="cls-1" cx="228.74" cy="611.84" r="24"/><path class="cls-2" d="M228.79,603.8v1.34h-7a7.3,7.3,0,1,0,.09,14.6H236.4a7.3,7.3,0,1,0,.09-14.6h-2.12a.13.13,0,0,1-.13-.12l0-1.09a.13.13,0,0,1,.13-.13l2.14,0a8.66,8.66,0,1,1-.11,17.33H221.86a8.66,8.66,0,1,1-.11-17.33Z"/><path class="cls-2" d="M232.72,604.16l-3.3-2.09a.5.5,0,0,0-.77.42v4.18a.5.5,0,0,0,.77.42l3.3-2.09A.5.5,0,0,0,232.72,604.16Z"/></g><g id="backward"><circle class="cls-1" cx="179.89" cy="611.67" r="24"/><path class="cls-2" d="M168.09,612.86l9.35,5.4a1.38,1.38,0,0,0,2.06-1.19v-1l8.3,4.79a1.38,1.38,0,0,0,2.06-1.19v-16a1.38,1.38,0,0,0-2.06-1.19l-8.3,4.79v-1a1.38,1.38,0,0,0-2.06-1.19l-9.35,5.4A1.38,1.38,0,0,0,168.09,612.86Z"/></g><g id="forward"><circle class="cls-1" cx="129.64" cy="611.26" r="24"/><path class="cls-2" d="M141.44,610.06l-9.35-5.4a1.38,1.38,0,0,0-2.06,1.19v1l-8.3-4.79a1.38,1.38,0,0,0-2.06,1.19v16a1.38,1.38,0,0,0,2.06,1.19l8.3-4.79v1a1.38,1.38,0,0,0,2.06,1.19l9.35-5.4A1.38,1.38,0,0,0,141.44,610.06Z"/></g><g id="play"><circle class="cls-1" cx="79.83" cy="611.01" r="24"/><path class="cls-2" d="M90.17,608.74,78,598.19a3,3,0,0,0-5,2.27v21.09a3,3,0,0,0,5,2.27l12.17-10.55A3,3,0,0,0,90.17,608.74Z"/></g><g id="auswaehlen"><rect class="cls-1" x="254.46" y="538.21" width="48" height="48" rx="5" ry="5"/><path class="cls-2" d="M270,571.06l1.63-2.27c5-7,9.94-14,15-20.86a6.89,6.89,0,0,1,8.07-2.05c-.56.83-1.07,1.63-1.62,2.39-7,9.59-14.06,19.14-21,28.79-1.24,1.73-2.74,2-4.6,2s-2.56-1.18-3.06-2.6c-.83-2.36-1.68-4.72-2.3-7.14-.54-2.13,2.23-4.88,4.34-4.31.66.18,1.26,1.07,1.63,1.77C268.85,568,269.32,569.34,270,571.06Z"/></g><g id="suchen"><rect class="cls-1" x="204.83" y="538.54" width="48" height="48" rx="5" ry="5"/><path class="cls-2" d="M233.89,546.6a11.37,11.37,0,0,0-9.4,17.78L213,574.85a1.65,1.65,0,0,0,0,2.48l.74.67a1.88,1.88,0,0,0,2.51,0l11.53-10.46a11.37,11.37,0,1,0,6.17-20.93Zm0,19.87a8.5,8.5,0,1,1,8.5-8.5A8.51,8.51,0,0,1,233.89,566.48Z"/></g><g id="hinzufuegen"><rect class="cls-1" x="155.58" y="538.25" width="48" height="48" rx="5" ry="5"/><polygon class="cls-2" points="195.57 559.93 181.9 559.93 181.9 546.27 177.27 546.27 177.27 559.93 163.6 559.93 163.6 564.57 177.27 564.57 177.27 578.23 181.9 578.23 181.9 564.57 195.57 564.57 195.57 559.93"/></g><g id="credits"><rect class="cls-1" x="106.17" y="538.42" width="48" height="48" rx="5" ry="5"/><circle class="cls-2" cx="130.17" cy="562.42" r="21.17"/><path class="cls-1" d="M131.69,555.45a1.29,1.29,0,0,0-1.23-.69,1.54,1.54,0,0,0-1.05.35,2.31,2.31,0,0,0-.6,1.23,13.41,13.41,0,0,0-.27,2.37q-.06,1.49-.06,3.76t.06,3.76a13.4,13.4,0,0,0,.27,2.37,2.3,2.3,0,0,0,.6,1.23,1.53,1.53,0,0,0,1.05.35,1.4,1.4,0,0,0,.88-.27,1.72,1.72,0,0,0,.53-.9,8.19,8.19,0,0,0,.27-1.68q.08-1.05.08-2.66h5.66v1.67a10.15,10.15,0,0,1-.63,3.87,6,6,0,0,1-1.67,2.37,5.54,5.54,0,0,1-2.37,1.16,12.58,12.58,0,0,1-2.75.3,11.48,11.48,0,0,1-4-.6,4.85,4.85,0,0,1-2.45-2,9.34,9.34,0,0,1-1.21-3.62,37.08,37.08,0,0,1-.33-5.36,32,32,0,0,1,.39-5.44,9.21,9.21,0,0,1,1.34-3.62,5.33,5.33,0,0,1,2.48-2,10.33,10.33,0,0,1,3.8-.61,9.9,9.9,0,0,1,3.36.5,5.65,5.65,0,0,1,2.25,1.43,5.59,5.59,0,0,1,1.26,2.23,10.19,10.19,0,0,1,.39,2.94v1.41h-5.66v-1.26A6.1,6.1,0,0,0,131.69,555.45Z"/></g><g id="geraete"><rect class="cls-1" x="56.17" y="537.67" width="48" height="48" rx="5" ry="5"/><g id="Dev"><circle class="cls-2" cx="62.89" cy="565.12" r="2.3"/><circle class="cls-2" cx="83.62" cy="565.12" r="2.3"/><path class="cls-2" d="M86,559.93H60.52a2,2,0,0,0-2,2v6.46a2,2,0,0,0,2,2H86a2,2,0,0,0,2-2v-6.46A2,2,0,0,0,86,559.93ZM62.89,568a2.88,2.88,0,1,1,2.88-2.88A2.88,2.88,0,0,1,62.89,568Zm20.74,0a2.88,2.88,0,1,1,2.88-2.88A2.88,2.88,0,0,1,83.62,568Z"/><path class="cls-3" d="M70.82,556.59a2.85,2.85,0,0,1,2.83,2.59h.71a3.56,3.56,0,0,0-7.1,0H68A2.85,2.85,0,0,1,70.82,556.59Z"/><path class="cls-3" d="M96.43,555.88a3.56,3.56,0,1,0,3.56,3.56A3.56,3.56,0,0,0,96.43,555.88Zm0,6.4a2.85,2.85,0,1,1,2.85-2.85A2.85,2.85,0,0,1,96.43,562.28Z"/><path class="cls-2" d="M70.82,556.59A2.85,2.85,0,0,0,68,559.18h5.67A2.85,2.85,0,0,0,70.82,556.59Z"/><circle class="cls-2" cx="96.43" cy="559.43" r="2.85"/><path class="cls-2" d="M99.35,553H67.89a2.41,2.41,0,0,0-2.41,2.41v3.74h1.79a3.56,3.56,0,0,1,7.1,0H86.62a2.18,2.18,0,0,1,2.18,2.18v4.47H99.35a2.41,2.41,0,0,0,2.41-2.41v-8A2.41,2.41,0,0,0,99.35,553Zm-2.92,10a3.56,3.56,0,1,1,3.56-3.56A3.56,3.56,0,0,1,96.43,563Z"/></g></g><g id="lms_remote"><rect class="cls-1" x="253.99" y="488.17" width="48" height="48" rx="5" ry="5"/><path class="cls-2" d="M291.74,509.87,274,495a3,3,0,0,0-4.93,2.3V527a3,3,0,0,0,4.93,2.3l17.74-14.85A3,3,0,0,0,291.74,509.87Z"/></g><g id="convolover"><rect class="cls-1" x="204.55" y="488.75" width="48" height="48" rx="5" ry="5"/><path class="cls-2" d="M221,505.44a9.89,9.89,0,0,1,0,14l-2.77-2.77a6,6,0,0,0,0-8.43Z"/><path class="cls-2" d="M223.21,521.61a13,13,0,0,0,0-18.39l2.77-2.77a16.93,16.93,0,0,1,0,23.92Z"/><path class="cls-2" d="M231,495.48a24,24,0,0,1,0,33.88l-2.77-2.77a20.07,20.07,0,0,0,0-28.35Z"/></g><g id="messung"><rect class="cls-1" x="155.05" y="488.58" width="48" height="48" rx="5" ry="5"/><path class="cls-2" d="M159.8,523.91l7.93,7.93,30.58-30.58-7.93-7.93Zm37.41-22.65-29.48,29.48-6.84-6.84.44-.44,1.45,1.45.55-.55-1.45-1.45.93-.93,3.17,3.17.55-.55-3.17-3.17.93-.93,1.45,1.45.55-.55L164.83,520l.93-.93,3.17,3.17.55-.55-3.17-3.17.93-.93,1.45,1.45.55-.55L167.78,517l.93-.93,3.17,3.17.55-.55-3.17-3.17.93-.93,1.45,1.45.55-.55-1.45-1.45.93-.93,3.17,3.17.55-.55-3.17-3.17.93-.93,1.45,1.45.55-.55-1.45-1.45.93-.93,3.17,3.17.55-.55-3.17-3.17.93-.93,1.45,1.45.55-.55-1.45-1.45.93-.93,3.17,3.17.55-.55-3.17-3.17.93-.93,1.45,1.45.55-.55-1.45-1.45.93-.93,3.17,3.17.55-.55-3.17-3.17.93-.93,1.45,1.45.55-.55-1.45-1.45.93-.93,3.17,3.17.55-.55L184,500.77l.93-.93,1.45,1.45.55-.55-1.45-1.45.93-.93,3.17,3.17.55-.55L187,497.81l.93-.93,1.45,1.45.55-.55-1.45-1.45.93-.93,3.17,3.17.55-.55-3.17-3.17.44-.44Z"/></g><g id="system"><rect class="cls-1" x="106.14" y="488.67" width="48" height="48" rx="5" ry="5"/><circle class="cls-2" cx="130.14" cy="512.67" r="21.17"/><path class="cls-1" d="M115.1,507.69a8.9,8.9,0,0,1,1.27-3.38,5.15,5.15,0,0,1,2.32-1.91,10.64,10.64,0,0,1,7.06,0,5.15,5.15,0,0,1,2.32,1.91,8.91,8.91,0,0,1,1.27,3.38,33.09,33.09,0,0,1,0,10,8.9,8.9,0,0,1-1.27,3.38,4.87,4.87,0,0,1-2.32,1.87,11.43,11.43,0,0,1-7.06,0,4.87,4.87,0,0,1-2.32-1.87,8.9,8.9,0,0,1-1.27-3.38,33.09,33.09,0,0,1,0-10Zm5.33,8.53a12.54,12.54,0,0,0,.25,2.22,2.16,2.16,0,0,0,.56,1.15,1.66,1.66,0,0,0,2,0,2.16,2.16,0,0,0,.56-1.15,12.63,12.63,0,0,0,.25-2.22q.06-1.4.06-3.52t-.06-3.52a12.64,12.64,0,0,0-.25-2.22,2.17,2.17,0,0,0-.56-1.15,1.66,1.66,0,0,0-2,0,2.16,2.16,0,0,0-.56,1.15,12.55,12.55,0,0,0-.25,2.22q-.06,1.4-.06,3.52T120.43,516.23Z"/><path class="cls-1" d="M139.88,507.77a3.16,3.16,0,0,0-.38-1.6,1.27,1.27,0,0,0-1.18-.66,1.48,1.48,0,0,0-1.29.57,2.14,2.14,0,0,0-.41,1.28,2.1,2.1,0,0,0,.66,1.63,6.1,6.1,0,0,0,1.66,1q1,.44,2.15.9a9.62,9.62,0,0,1,2.15,1.19,5.92,5.92,0,0,1,1.66,1.93,6.36,6.36,0,0,1,.66,3.1q0,3.35-1.91,4.87a8.74,8.74,0,0,1-5.53,1.52,14.55,14.55,0,0,1-3-.28,5.41,5.41,0,0,1-2.21-1,4.37,4.37,0,0,1-1.37-1.81,7.14,7.14,0,0,1-.47-2.77V517h5.3v.5a2.8,2.8,0,0,0,.5,1.9,1.68,1.68,0,0,0,1.29.54,1.56,1.56,0,0,0,1.31-.59,2.28,2.28,0,0,0,.46-1.44,2.15,2.15,0,0,0-.63-1.63,5.57,5.57,0,0,0-1.59-1q-1-.43-2.07-.87a9.09,9.09,0,0,1-2.07-1.15,5.65,5.65,0,0,1-1.59-1.85,6.19,6.19,0,0,1-.63-3,6.55,6.55,0,0,1,1.71-4.88,7.12,7.12,0,0,1,5.18-1.68q3.59,0,5.19,1.54t1.6,4.93h-5.12Z"/></g><g id="konfig"><rect class="cls-1" x="56.33" y="488.33" width="48" height="48" rx="5" ry="5"/><path class="cls-2" d="M98.08,507.15H94.38q-.22-.54-.47-1.06l2.64-2.64a2.12,2.12,0,0,0,0-3l-4.33-4.33a2.12,2.12,0,0,0-3,0l-2.8,2.8q-.44-.19-.9-.36v-4a2.12,2.12,0,0,0-2.12-2.12H77.27a2.12,2.12,0,0,0-2.12,2.12v4q-.46.17-.9.36l-2.8-2.8a2.12,2.12,0,0,0-3,0l-4.33,4.33a2.12,2.12,0,0,0,0,3l2.64,2.64q-.25.52-.47,1.06H62.58a2.12,2.12,0,0,0-2.12,2.12v6.12a2.12,2.12,0,0,0,2.12,2.12H66q.22.68.51,1.33l-2.37,2.37a2.12,2.12,0,0,0,0,3l4.33,4.33a2.12,2.12,0,0,0,3,0l2.21-2.21a15,15,0,0,0,1.49.64v3.11a2.12,2.12,0,0,0,2.12,2.12h6.12a2.12,2.12,0,0,0,2.12-2.12V527a15,15,0,0,0,1.49-.64l2.21,2.21a2.12,2.12,0,0,0,3,0l4.33-4.33a2.12,2.12,0,0,0,0-3l-2.37-2.37q.29-.65.51-1.33h3.39a2.12,2.12,0,0,0,2.12-2.12v-6.12A2.12,2.12,0,0,0,98.08,507.15Zm-12.13,5.62a5.62,5.62,0,1,1-5.62-5.62A5.62,5.62,0,0,1,85.95,512.77Z"/></g></svg>