<svg xmlns="http://www.w3.org/2000/svg" xmlns:xlink="http://www.w3.org/1999/xlink" viewBox="0 0 20 20"><defs><style>.cls-1{fill:url(#Unbenannter_Verlauf_27);}.cls-2,.cls-3{fill:#fff;}.cls-2{fill-rule:evenodd;}</style><linearGradient id="Unbenannter_Verlauf_27" x1="10" x2="10" y2="20" gradientUnits="userSpaceOnUse"><stop offset="0" stop-color="#00abaa"/><stop offset="1" stop-color="#008988"/></linearGradient></defs><title>20lgo</title><g id="abacusLogo"><path class="cls-1" d="M17.92,0H2.08A2.08,2.08,0,0,0,0,2.08V17.92A2.08,2.08,0,0,0,2.08,20H17.92A2.08,2.08,0,0,0,20,17.92V2.08A2.08,2.08,0,0,0,17.92,0Z"/><path class="cls-2" d="M7.14,7.37a1,1,0,1,1-1,1,1,1,0,0,1,1-1"/><path class="cls-2" d="M11.43,7.37a1,1,0,1,1-1,1,1,1,0,0,1,1-1"/><path class="cls-2" d="M9.28,7.37a1,1,0,1,1-1,1,1,1,0,0,1,1-1"/><path class="cls-2" d="M15,7.37a1,1,0,1,1-1,1,1,1,0,0,1,1-1"/><path class="cls-2" d="M5,7.37a1,1,0,1,1-1,1,1,1,0,0,1,1-1"/><path class="cls-2" d="M7.14,10.72a1,1,0,1,1-1,1,1,1,0,0,1,1-1"/><path class="cls-2" d="M11.43,10.72a1,1,0,1,1-1,1,1,1,0,0,1,1-1"/><path class="cls-2" d="M9.28,10.72a1,1,0,1,1-1,1,1,1,0,0,1,1-1"/><path class="cls-2" d="M15,10.72a1,1,0,1,1-1,1,1,1,0,0,1,1-1"/><path class="cls-2" d="M5,10.72a1,1,0,1,1-1,1,1,1,0,0,1,1-1"/><path class="cls-2" d="M7.14,14.06a1,1,0,1,1-1,1,1,1,0,0,1,1-1"/><path class="cls-2" d="M11.43,14.06a1,1,0,1,1-1,1,1,1,0,0,1,1-1"/><path class="cls-2" d="M9.28,14.06a1,1,0,1,1-1,1,1,1,0,0,1,1-1"/><path class="cls-2" d="M15,14.06a1,1,0,1,1-1,1,1,1,0,0,1,1-1"/><path class="cls-2" d="M5,14.06a1,1,0,1,1-1,1,1,1,0,0,1,1-1"/><path class="cls-2" d="M7.14,4a1,1,0,1,1-1,1,1,1,0,0,1,1-1"/><path class="cls-2" d="M11.43,4a1,1,0,1,1-1,1,1,1,0,0,1,1-1"/><path class="cls-2" d="M9.28,4a1,1,0,1,1-1,1,1,1,0,0,1,1-1"/><path class="cls-2" d="M15,4a1,1,0,1,1-1,1,1,1,0,0,1,1-1"/><path class="cls-2" d="M5,4A1,1,0,1,1,4,5,1,1,0,0,1,5,4"/><path class="cls-2" d="M5,2.84H15A2.15,2.15,0,0,1,17.16,5V15A2.15,2.15,0,0,1,15,17.16H5A2.15,2.15,0,0,1,2.84,15V5A2.15,2.15,0,0,1,5,2.84m0-.48H15A2.63,2.63,0,0,1,17.64,5V15A2.63,2.63,0,0,1,15,17.64H5A2.63,2.63,0,0,1,2.36,15V5A2.63,2.63,0,0,1,5,2.36"/><rect class="cls-3" x="12.98" y="2.84" width="0.48" height="14.32"/></g></svg>