<svg xmlns="http://www.w3.org/2000/svg" xmlns:xlink="http://www.w3.org/1999/xlink" viewBox="0 0 29 29"><defs><style>.cls-1{fill:url(#Unbenannter_Verlauf_27);}.cls-2,.cls-3{fill:#fff;}.cls-2{fill-rule:evenodd;}</style><linearGradient id="Unbenannter_Verlauf_27" x1="14.5" x2="14.5" y2="29" gradientUnits="userSpaceOnUse"><stop offset="0" stop-color="#00abaa"/><stop offset="1" stop-color="#008988"/></linearGradient></defs><title>29lgo</title><g id="abacusLogo"><path class="cls-1" d="M26,0H3A3,3,0,0,0,0,3V26a3,3,0,0,0,3,3H26a3,3,0,0,0,3-3V3A3,3,0,0,0,26,0Z"/><path class="cls-2" d="M10.35,10.69A1.38,1.38,0,1,1,9,12.08a1.38,1.38,0,0,1,1.38-1.38"/><path class="cls-2" d="M16.58,10.69a1.38,1.38,0,1,1-1.38,1.38,1.38,1.38,0,0,1,1.38-1.38"/><path class="cls-2" d="M13.46,10.69a1.38,1.38,0,1,1-1.38,1.38,1.38,1.38,0,0,1,1.38-1.38"/><path class="cls-2" d="M21.77,10.69a1.38,1.38,0,1,1-1.38,1.38,1.38,1.38,0,0,1,1.38-1.38"/><path class="cls-2" d="M7.23,10.69a1.38,1.38,0,1,1-1.38,1.38,1.38,1.38,0,0,1,1.38-1.38"/><path class="cls-2" d="M10.35,15.54A1.38,1.38,0,1,1,9,16.92a1.38,1.38,0,0,1,1.38-1.38"/><path class="cls-2" d="M16.58,15.54a1.38,1.38,0,1,1-1.38,1.38,1.38,1.38,0,0,1,1.38-1.38"/><path class="cls-2" d="M13.46,15.54a1.38,1.38,0,1,1-1.38,1.38,1.38,1.38,0,0,1,1.38-1.38"/><path class="cls-2" d="M21.77,15.54a1.38,1.38,0,1,1-1.38,1.38,1.38,1.38,0,0,1,1.38-1.38"/><path class="cls-2" d="M7.23,15.54a1.38,1.38,0,1,1-1.38,1.38,1.38,1.38,0,0,1,1.38-1.38"/><path class="cls-2" d="M10.35,20.38A1.38,1.38,0,1,1,9,21.77a1.38,1.38,0,0,1,1.38-1.38"/><path class="cls-2" d="M16.58,20.38a1.38,1.38,0,1,1-1.38,1.38,1.38,1.38,0,0,1,1.38-1.38"/><path class="cls-2" d="M13.46,20.38a1.38,1.38,0,1,1-1.38,1.38,1.38,1.38,0,0,1,1.38-1.38"/><path class="cls-2" d="M21.77,20.38a1.38,1.38,0,1,1-1.38,1.38,1.38,1.38,0,0,1,1.38-1.38"/><path class="cls-2" d="M7.23,20.38a1.38,1.38,0,1,1-1.38,1.38,1.38,1.38,0,0,1,1.38-1.38"/><path class="cls-2" d="M10.35,5.85A1.38,1.38,0,1,1,9,7.23a1.38,1.38,0,0,1,1.38-1.38"/><path class="cls-2" d="M16.58,5.85a1.38,1.38,0,1,1-1.38,1.38,1.38,1.38,0,0,1,1.38-1.38"/><path class="cls-2" d="M13.46,5.85a1.38,1.38,0,1,1-1.38,1.38,1.38,1.38,0,0,1,1.38-1.38"/><path class="cls-2" d="M21.77,5.85a1.38,1.38,0,1,1-1.38,1.38,1.38,1.38,0,0,1,1.38-1.38"/><path class="cls-2" d="M7.23,5.85A1.38,1.38,0,1,1,5.85,7.23,1.38,1.38,0,0,1,7.23,5.85"/><path class="cls-2" d="M7.23,4.12H21.77a3.12,3.12,0,0,1,3.12,3.12V21.77a3.12,3.12,0,0,1-3.12,3.12H7.23a3.12,3.12,0,0,1-3.12-3.12V7.23A3.12,3.12,0,0,1,7.23,4.12m0-.69H21.77a3.82,3.82,0,0,1,3.81,3.81V21.77a3.82,3.82,0,0,1-3.81,3.81H7.23a3.82,3.82,0,0,1-3.81-3.81V7.23A3.82,3.82,0,0,1,7.23,3.42"/><rect class="cls-3" x="18.83" y="4.12" width="0.69" height="20.77"/></g></svg>