<svg xmlns="http://www.w3.org/2000/svg" xmlns:xlink="http://www.w3.org/1999/xlink" viewBox="0 0 60 60"><defs><style>.cls-1{fill:url(#Unbenannter_Verlauf_27);}.cls-2,.cls-3{fill:#fff;}.cls-2{fill-rule:evenodd;}</style><linearGradient id="Unbenannter_Verlauf_27" x1="30" x2="30" y2="60" gradientUnits="userSpaceOnUse"><stop offset="0" stop-color="#00abaa"/><stop offset="1" stop-color="#008988"/></linearGradient></defs><title>60lgo</title><g id="abacusLogo"><path class="cls-1" d="M53.75,0H6.25A6.25,6.25,0,0,0,0,6.25v47.5A6.25,6.25,0,0,0,6.25,60h47.5A6.25,6.25,0,0,0,60,53.75V6.25A6.25,6.25,0,0,0,53.75,0Z"/><path class="cls-2" d="M21.41,22.12A2.86,2.86,0,1,1,18.54,25a2.86,2.86,0,0,1,2.87-2.86"/><path class="cls-2" d="M34.3,22.12A2.86,2.86,0,1,1,31.43,25a2.86,2.86,0,0,1,2.86-2.86"/><path class="cls-2" d="M27.85,22.12A2.86,2.86,0,1,1,25,25a2.86,2.86,0,0,1,2.86-2.86"/><path class="cls-2" d="M45,22.12A2.86,2.86,0,1,1,42.17,25,2.86,2.86,0,0,1,45,22.12"/><path class="cls-2" d="M15,22.12A2.86,2.86,0,1,1,12.1,25,2.86,2.86,0,0,1,15,22.12"/><path class="cls-2" d="M21.41,32.15A2.86,2.86,0,1,1,18.54,35a2.86,2.86,0,0,1,2.87-2.86"/><path class="cls-2" d="M34.3,32.15A2.86,2.86,0,1,1,31.43,35a2.86,2.86,0,0,1,2.86-2.86"/><path class="cls-2" d="M27.85,32.15A2.86,2.86,0,1,1,25,35a2.86,2.86,0,0,1,2.86-2.86"/><path class="cls-2" d="M45,32.15A2.86,2.86,0,1,1,42.17,35,2.86,2.86,0,0,1,45,32.15"/><path class="cls-2" d="M15,32.15A2.86,2.86,0,1,1,12.1,35,2.86,2.86,0,0,1,15,32.15"/><path class="cls-2" d="M21.41,42.17A2.86,2.86,0,1,1,18.54,45a2.86,2.86,0,0,1,2.87-2.87"/><path class="cls-2" d="M34.3,42.17A2.86,2.86,0,1,1,31.43,45a2.86,2.86,0,0,1,2.86-2.87"/><path class="cls-2" d="M27.85,42.17A2.86,2.86,0,1,1,25,45a2.87,2.87,0,0,1,2.86-2.87"/><path class="cls-2" d="M45,42.17A2.86,2.86,0,1,1,42.17,45,2.87,2.87,0,0,1,45,42.17"/><path class="cls-2" d="M15,42.17A2.86,2.86,0,1,1,12.1,45,2.87,2.87,0,0,1,15,42.17"/><path class="cls-2" d="M21.41,12.1A2.86,2.86,0,1,1,18.54,15a2.86,2.86,0,0,1,2.87-2.86"/><path class="cls-2" d="M34.3,12.1A2.86,2.86,0,1,1,31.43,15,2.86,2.86,0,0,1,34.3,12.1"/><path class="cls-2" d="M27.85,12.1A2.86,2.86,0,1,1,25,15a2.86,2.86,0,0,1,2.86-2.86"/><path class="cls-2" d="M45,12.1A2.86,2.86,0,1,1,42.17,15,2.86,2.86,0,0,1,45,12.1"/><path class="cls-2" d="M15,12.1A2.86,2.86,0,1,1,12.1,15,2.86,2.86,0,0,1,15,12.1"/><path class="cls-2" d="M15,8.52H45A6.46,6.46,0,0,1,51.48,15V45A6.46,6.46,0,0,1,45,51.48H15A6.46,6.46,0,0,1,8.52,45V15A6.46,6.46,0,0,1,15,8.52m0-1.43H45A7.9,7.9,0,0,1,52.92,15V45A7.9,7.9,0,0,1,45,52.92H15A7.9,7.9,0,0,1,7.08,45V15A7.9,7.9,0,0,1,15,7.08"/><rect class="cls-3" x="38.95" y="8.52" width="1.43" height="42.97"/></g></svg>