<svg xmlns="http://www.w3.org/2000/svg" xmlns:xlink="http://www.w3.org/1999/xlink" viewBox="0 0 76 76"><defs><style>.cls-1{fill:url(#Unbenannter_Verlauf_27);}.cls-2,.cls-3{fill:#fff;}.cls-2{fill-rule:evenodd;}</style><linearGradient id="Unbenannter_Verlauf_27" x1="38" x2="38" y2="76" gradientUnits="userSpaceOnUse"><stop offset="0" stop-color="#00abaa"/><stop offset="1" stop-color="#008988"/></linearGradient></defs><title>76lgo</title><g id="abacusLogo"><path class="cls-1" d="M68.08,0H7.92A7.92,7.92,0,0,0,0,7.92V68.08A7.92,7.92,0,0,0,7.92,76H68.08A7.92,7.92,0,0,0,76,68.08V7.92A7.92,7.92,0,0,0,68.08,0Z"/><path class="cls-2" d="M27.11,28a3.63,3.63,0,1,1-3.63,3.63A3.63,3.63,0,0,1,27.11,28"/><path class="cls-2" d="M43.44,28a3.63,3.63,0,1,1-3.63,3.63A3.63,3.63,0,0,1,43.44,28"/><path class="cls-2" d="M35.28,28a3.63,3.63,0,1,1-3.63,3.63A3.63,3.63,0,0,1,35.28,28"/><path class="cls-2" d="M57,28a3.63,3.63,0,1,1-3.63,3.63A3.63,3.63,0,0,1,57,28"/><path class="cls-2" d="M19,28a3.63,3.63,0,1,1-3.63,3.63A3.63,3.63,0,0,1,19,28"/><path class="cls-2" d="M27.11,40.72a3.63,3.63,0,1,1-3.63,3.63,3.63,3.63,0,0,1,3.63-3.63"/><path class="cls-2" d="M43.44,40.72a3.63,3.63,0,1,1-3.63,3.63,3.63,3.63,0,0,1,3.63-3.63"/><path class="cls-2" d="M35.28,40.72a3.63,3.63,0,1,1-3.63,3.63,3.63,3.63,0,0,1,3.63-3.63"/><path class="cls-2" d="M57,40.72a3.63,3.63,0,1,1-3.63,3.63A3.63,3.63,0,0,1,57,40.72"/><path class="cls-2" d="M19,40.72a3.63,3.63,0,1,1-3.63,3.63A3.63,3.63,0,0,1,19,40.72"/><path class="cls-2" d="M27.11,53.42a3.63,3.63,0,1,1-3.63,3.63,3.63,3.63,0,0,1,3.63-3.63"/><path class="cls-2" d="M43.44,53.42a3.63,3.63,0,1,1-3.63,3.63,3.63,3.63,0,0,1,3.63-3.63"/><path class="cls-2" d="M35.28,53.42a3.63,3.63,0,1,1-3.63,3.63,3.63,3.63,0,0,1,3.63-3.63"/><path class="cls-2" d="M57,53.42a3.63,3.63,0,1,1-3.63,3.63A3.63,3.63,0,0,1,57,53.42"/><path class="cls-2" d="M19,53.42a3.63,3.63,0,1,1-3.63,3.63A3.63,3.63,0,0,1,19,53.42"/><path class="cls-2" d="M27.11,15.32A3.63,3.63,0,1,1,23.49,19a3.63,3.63,0,0,1,3.63-3.63"/><path class="cls-2" d="M43.44,15.32A3.63,3.63,0,1,1,39.81,19a3.63,3.63,0,0,1,3.63-3.63"/><path class="cls-2" d="M35.28,15.32A3.63,3.63,0,1,1,31.65,19a3.63,3.63,0,0,1,3.63-3.63"/><path class="cls-2" d="M57,15.32A3.63,3.63,0,1,1,53.42,19,3.63,3.63,0,0,1,57,15.32"/><path class="cls-2" d="M19,15.32A3.63,3.63,0,1,1,15.32,19,3.63,3.63,0,0,1,19,15.32"/><path class="cls-2" d="M19,10.79H57A8.19,8.19,0,0,1,65.21,19V57A8.19,8.19,0,0,1,57,65.21H19A8.19,8.19,0,0,1,10.79,57V19A8.19,8.19,0,0,1,19,10.79M19,9H57A10,10,0,0,1,67,19V57A10,10,0,0,1,57,67H19A10,10,0,0,1,9,57V19A10,10,0,0,1,19,9"/><rect class="cls-3" x="49.34" y="10.79" width="1.81" height="54.42"/></g></svg>