<svg xmlns="http://www.w3.org/2000/svg" xmlns:xlink="http://www.w3.org/1999/xlink" viewBox="0 0 83.5 83.5"><defs><style>.cls-1{fill:url(#Unbenannter_Verlauf_27);}.cls-2,.cls-3{fill:#fff;}.cls-2{fill-rule:evenodd;}</style><linearGradient id="Unbenannter_Verlauf_27" x1="41.75" x2="41.75" y2="83.5" gradientUnits="userSpaceOnUse"><stop offset="0" stop-color="#00abaa"/><stop offset="1" stop-color="#008988"/></linearGradient></defs><title>83,5lgo</title><g id="abacusLogo"><path class="cls-1" d="M74.8,0H8.7A8.7,8.7,0,0,0,0,8.7V74.8a8.7,8.7,0,0,0,8.7,8.7H74.8a8.7,8.7,0,0,0,8.7-8.7V8.7A8.7,8.7,0,0,0,74.8,0Z"/><path class="cls-2" d="M29.79,30.79a4,4,0,1,1-4,4,4,4,0,0,1,4-4"/><path class="cls-2" d="M47.73,30.79a4,4,0,1,1-4,4,4,4,0,0,1,4-4"/><path class="cls-2" d="M38.76,30.79a4,4,0,1,1-4,4,4,4,0,0,1,4-4"/><path class="cls-2" d="M62.68,30.79a4,4,0,1,1-4,4,4,4,0,0,1,4-4"/><path class="cls-2" d="M20.82,30.79a4,4,0,1,1-4,4,4,4,0,0,1,4-4"/><path class="cls-2" d="M29.79,44.74a4,4,0,1,1-4,4,4,4,0,0,1,4-4"/><path class="cls-2" d="M47.73,44.74a4,4,0,1,1-4,4,4,4,0,0,1,4-4"/><path class="cls-2" d="M38.76,44.74a4,4,0,1,1-4,4,4,4,0,0,1,4-4"/><path class="cls-2" d="M62.68,44.74a4,4,0,1,1-4,4,4,4,0,0,1,4-4"/><path class="cls-2" d="M20.82,44.74a4,4,0,1,1-4,4,4,4,0,0,1,4-4"/><path class="cls-2" d="M29.79,58.69a4,4,0,1,1-4,4,4,4,0,0,1,4-4"/><path class="cls-2" d="M47.73,58.69a4,4,0,1,1-4,4,4,4,0,0,1,4-4"/><path class="cls-2" d="M38.76,58.69a4,4,0,1,1-4,4,4,4,0,0,1,4-4"/><path class="cls-2" d="M62.68,58.69a4,4,0,1,1-4,4,4,4,0,0,1,4-4"/><path class="cls-2" d="M20.82,58.69a4,4,0,1,1-4,4,4,4,0,0,1,4-4"/><path class="cls-2" d="M29.79,16.83a4,4,0,1,1-4,4,4,4,0,0,1,4-4"/><path class="cls-2" d="M47.73,16.83a4,4,0,1,1-4,4,4,4,0,0,1,4-4"/><path class="cls-2" d="M38.76,16.83a4,4,0,1,1-4,4,4,4,0,0,1,4-4"/><path class="cls-2" d="M62.68,16.83a4,4,0,1,1-4,4,4,4,0,0,1,4-4"/><path class="cls-2" d="M20.82,16.83a4,4,0,1,1-4,4,4,4,0,0,1,4-4"/><path class="cls-2" d="M20.82,11.85H62.68a9,9,0,0,1,9,9V62.68a9,9,0,0,1-9,9H20.82a9,9,0,0,1-9-9V20.82a9,9,0,0,1,9-9m0-2H62.68a11,11,0,0,1,11,11V62.68a11,11,0,0,1-11,11H20.82a11,11,0,0,1-11-11V20.82a11,11,0,0,1,11-11"/><rect class="cls-3" x="54.21" y="11.85" width="1.99" height="59.8"/></g></svg>