<svg id="Ebene_1" data-name="Ebene 1" xmlns="http://www.w3.org/2000/svg" viewBox="0 0 1000 204.69"><defs><style>.cls-1,.cls-2{fill:#fff;}.cls-1{fill-rule:evenodd;}</style></defs><title>LaunchLogoZeichenfläche 1</title><path class="cls-1" d="M64,67.17A12.79,12.79,0,1,1,51.17,80,12.79,12.79,0,0,1,64,67.17Z"/><path class="cls-1" d="M121.53,67.17A12.79,12.79,0,1,1,108.74,80a12.79,12.79,0,0,1,12.79-12.79Z"/><path class="cls-1" d="M92.75,67.17A12.79,12.79,0,1,1,80,80,12.79,12.79,0,0,1,92.75,67.17Z"/><path class="cls-1" d="M169.51,67.17A12.79,12.79,0,1,1,156.71,80a12.79,12.79,0,0,1,12.79-12.79Z"/><path class="cls-1" d="M35.18,67.17A12.79,12.79,0,1,1,22.39,80,12.79,12.79,0,0,1,35.18,67.17Z"/><path class="cls-1" d="M64,111.94a12.79,12.79,0,1,1-12.8,12.79A12.79,12.79,0,0,1,64,111.94Z"/><path class="cls-1" d="M121.53,111.94a12.79,12.79,0,1,1-12.79,12.79,12.79,12.79,0,0,1,12.79-12.79Z"/><path class="cls-1" d="M92.75,111.94A12.79,12.79,0,1,1,80,124.73a12.79,12.79,0,0,1,12.79-12.79Z"/><path class="cls-1" d="M169.51,111.94a12.79,12.79,0,1,1-12.79,12.79,12.79,12.79,0,0,1,12.79-12.79Z"/><path class="cls-1" d="M35.18,111.94a12.79,12.79,0,1,1-12.79,12.79,12.79,12.79,0,0,1,12.79-12.79Z"/><path class="cls-1" d="M64,156.72a12.79,12.79,0,1,1-12.8,12.8A12.79,12.79,0,0,1,64,156.72Z"/><path class="cls-1" d="M121.53,156.72a12.79,12.79,0,1,1-12.79,12.8,12.79,12.79,0,0,1,12.79-12.8Z"/><path class="cls-1" d="M92.75,156.72A12.79,12.79,0,1,1,80,169.51a12.79,12.79,0,0,1,12.79-12.8Z"/><path class="cls-1" d="M169.51,156.72a12.79,12.79,0,1,1-12.79,12.8,12.8,12.8,0,0,1,12.79-12.8Z"/><path class="cls-1" d="M35.18,156.72a12.79,12.79,0,1,1-12.79,12.8,12.79,12.79,0,0,1,12.79-12.8Z"/><path class="cls-1" d="M64,22.39a12.79,12.79,0,1,1-12.8,12.79A12.79,12.79,0,0,1,64,22.39Z"/><path class="cls-1" d="M121.53,22.39a12.79,12.79,0,1,1-12.79,12.79,12.79,12.79,0,0,1,12.79-12.79Z"/><path class="cls-1" d="M92.75,22.39A12.79,12.79,0,1,1,80,35.18,12.79,12.79,0,0,1,92.75,22.39Z"/><path class="cls-1" d="M169.51,22.39a12.79,12.79,0,1,1-12.79,12.79,12.79,12.79,0,0,1,12.79-12.79Z"/><path class="cls-1" d="M35.18,22.39A12.79,12.79,0,1,1,22.39,35.18,12.79,12.79,0,0,1,35.18,22.39Z"/><path class="cls-1" d="M35.18,0H169.51a35.28,35.28,0,0,1,35.18,35.18V169.51a35.28,35.28,0,0,1-35.18,35.18H35.18A35.28,35.28,0,0,1,0,169.51V35.18A35.28,35.28,0,0,1,35.18,0Zm0,6.4H169.51a28.87,28.87,0,0,1,28.78,28.78V169.5a28.87,28.87,0,0,1-28.78,28.78H35.18A28.87,28.87,0,0,1,6.4,169.5V35.18A28.87,28.87,0,0,1,35.18,6.4Z"/><polygon class="cls-1" points="142.32 6.4 148.72 6.4 148.72 198.28 142.32 198.28 142.32 6.4 142.32 6.4"/><path class="cls-2" d="M230.14,170.19,282.27,34.5H301.6l55.54,135.69H336.67l-15.83-41.1H264.1l-14.88,41.1Zm39.14-55.73h46L301.13,76.9c-4.3-11.41-7.52-20.79-9.6-28.15a172.92,172.92,0,0,1-7.33,25.94l-14.91,39.77Zm101.44,55.73V34.5h50.93c10.36,0,18.67,1.39,24.93,4.11a31.92,31.92,0,0,1,14.72,12.7,33.43,33.43,0,0,1,5.34,17.91,30.65,30.65,0,0,1-4.74,16.36C458.77,90.7,454,94.84,447.65,98c8.21,2.4,14.5,6.51,18.92,12.29a33,33,0,0,1,6.63,20.57,39.65,39.65,0,0,1-4,17.72,34.37,34.37,0,0,1-10,12.64,41.55,41.55,0,0,1-14.85,6.7,90,90,0,0,1-21.89,2.27Zm18-78.66h29.35c7.93,0,13.65-.54,17.12-1.58,4.55-1.36,8-3.6,10.3-6.76a19.56,19.56,0,0,0,3.47-11.85,21.87,21.87,0,0,0-3.22-11.88,16.49,16.49,0,0,0-9.26-7q-6-1.9-20.66-1.9H388.7v41Zm0,62.65h33.77a81.05,81.05,0,0,0,12.23-.63,29.44,29.44,0,0,0,10.36-3.73,19.61,19.61,0,0,0,6.86-7.52,23.89,23.89,0,0,0,2.69-11.44,22.67,22.67,0,0,0-3.89-13.2,20.54,20.54,0,0,0-10.8-7.87c-4.58-1.49-11.22-2.24-19.84-2.24H388.7v46.63Zm94.3,16L535.13,34.5h19.33L610,170.19H589.53l-15.83-41.1H517l-14.88,41.1Zm39.14-55.73h46L554,76.9c-4.3-11.41-7.52-20.79-9.6-28.15a172.94,172.94,0,0,1-7.33,25.94l-14.91,39.77Zm199,8.15,18,4.55q-5.64,22.08-20.31,33.74T682.91,172.5q-21.94,0-35.67-8.91t-20.91-25.88a92.68,92.68,0,0,1-7.17-36.39q0-21.18,8.09-37a55.49,55.49,0,0,1,23.06-24,67.18,67.18,0,0,1,32.89-8.18q20.38,0,34.25,10.36t19.33,29.16l-17.66,4.17C716,66,711.41,58.83,705.41,54.31s-13.49-6.76-22.59-6.76c-10.42,0-19.11,2.5-26.13,7.49a39.48,39.48,0,0,0-14.75,20.16,80.73,80.73,0,0,0-4.26,26c0,11.56,1.67,21.61,5,30.23s8.59,15,15.7,19.3a44,44,0,0,0,23.06,6.38q15.07,0,25.53-8.69t14.15-25.84ZM850.26,34.5h18v78.41q0,20.42-4.64,32.48t-16.71,19.56q-12.08,7.58-31.69,7.55c-12.7,0-23.13-2.18-31.18-6.57a37.32,37.32,0,0,1-17.31-19q-5.21-12.46-5.18-34V34.5h17.94v78.32q0,17.68,3.29,26A25,25,0,0,0,794,151.77q8,4.55,19.59,4.55,19.81,0,28.24-9t8.4-34.5V34.5ZM892,126.59,909,125.11q1.18,10.19,5.59,16.71t13.65,10.55a51.61,51.61,0,0,0,20.82,4,50.14,50.14,0,0,0,18.13-3q7.87-3.08,11.72-8.37a19.52,19.52,0,0,0,3.85-11.63A17.52,17.52,0,0,0,979,122.2q-3.7-4.79-12.19-8c-3.66-1.42-11.69-3.63-24.17-6.63s-21.2-5.81-26.19-8.47c-6.48-3.38-11.31-7.61-14.5-12.64a31.06,31.06,0,0,1-4.74-16.9A34.42,34.42,0,0,1,903,50.39q5.83-9,17-13.58a65,65,0,0,1,24.89-4.61c10.08,0,18.92,1.61,26.63,4.87a38.32,38.32,0,0,1,17.72,14.28A41.39,41.39,0,0,1,996,72.73L978.74,74c-.95-8.56-4.08-15.07-9.41-19.43S956.12,48,945.69,48c-10.87,0-18.76,2-23.76,6s-7.46,8.78-7.46,14.37a15.41,15.41,0,0,0,5.28,12c3.48,3.16,12.48,6.38,27.07,9.67s24.61,6.19,30,8.66q11.85,5.5,17.5,13.84a33.8,33.8,0,0,1,5.62,19.3,36.81,36.81,0,0,1-6.19,20.41A41.06,41.06,0,0,1,976,167.19a62.16,62.16,0,0,1-26.13,5.31c-12.29,0-22.59-1.77-30.86-5.37A43.18,43.18,0,0,1,899.44,151,45.61,45.61,0,0,1,892,126.59Z"/></svg>