<svg xmlns="http://www.w3.org/2000/svg" xmlns:xlink="http://www.w3.org/1999/xlink" viewBox="0 0 40 40"><defs><style>.cls-1{fill:url(#Unbenannter_Verlauf_27);}.cls-2,.cls-3{fill:#fff;}.cls-2{fill-rule:evenodd;}</style><linearGradient id="Unbenannter_Verlauf_27" x1="20" x2="20" y2="40" gradientUnits="userSpaceOnUse"><stop offset="0" stop-color="#00abaa"/><stop offset="1" stop-color="#008988"/></linearGradient></defs><title>Logoabacus_logo</title><g id="abacusLogo"><path class="cls-1" d="M35.83,0H4.17A4.17,4.17,0,0,0,0,4.17V35.83A4.17,4.17,0,0,0,4.17,40H35.83A4.17,4.17,0,0,0,40,35.83V4.17A4.17,4.17,0,0,0,35.83,0Z"/><path class="cls-2" d="M13.13,13.7A2.29,2.29,0,1,1,10.83,16a2.29,2.29,0,0,1,2.29-2.29"/><path class="cls-2" d="M23.44,13.7A2.29,2.29,0,1,1,21.15,16a2.29,2.29,0,0,1,2.29-2.29"/><path class="cls-2" d="M18.28,13.7A2.29,2.29,0,1,1,16,16a2.29,2.29,0,0,1,2.29-2.29"/><path class="cls-2" d="M32,13.7A2.29,2.29,0,1,1,29.74,16,2.29,2.29,0,0,1,32,13.7"/><path class="cls-2" d="M8,13.7A2.29,2.29,0,1,1,5.68,16,2.29,2.29,0,0,1,8,13.7"/><path class="cls-2" d="M13.13,21.72A2.29,2.29,0,1,1,10.83,24a2.29,2.29,0,0,1,2.29-2.29"/><path class="cls-2" d="M23.44,21.72A2.29,2.29,0,1,1,21.15,24a2.29,2.29,0,0,1,2.29-2.29"/><path class="cls-2" d="M18.28,21.72A2.29,2.29,0,1,1,16,24a2.29,2.29,0,0,1,2.29-2.29"/><path class="cls-2" d="M32,21.72A2.29,2.29,0,1,1,29.74,24,2.29,2.29,0,0,1,32,21.72"/><path class="cls-2" d="M8,21.72A2.29,2.29,0,1,1,5.68,24,2.29,2.29,0,0,1,8,21.72"/><path class="cls-2" d="M13.13,29.74A2.29,2.29,0,1,1,10.83,32a2.29,2.29,0,0,1,2.29-2.29"/><path class="cls-2" d="M23.44,29.74A2.29,2.29,0,1,1,21.15,32a2.29,2.29,0,0,1,2.29-2.29"/><path class="cls-2" d="M18.28,29.74A2.29,2.29,0,1,1,16,32a2.29,2.29,0,0,1,2.29-2.29"/><path class="cls-2" d="M32,29.74A2.29,2.29,0,1,1,29.74,32,2.29,2.29,0,0,1,32,29.74"/><path class="cls-2" d="M8,29.74A2.29,2.29,0,1,1,5.68,32,2.29,2.29,0,0,1,8,29.74"/><path class="cls-2" d="M13.13,5.68A2.29,2.29,0,1,1,10.83,8a2.29,2.29,0,0,1,2.29-2.29"/><path class="cls-2" d="M23.44,5.68A2.29,2.29,0,1,1,21.15,8a2.29,2.29,0,0,1,2.29-2.29"/><path class="cls-2" d="M18.28,5.68A2.29,2.29,0,1,1,16,8a2.29,2.29,0,0,1,2.29-2.29"/><path class="cls-2" d="M32,5.68A2.29,2.29,0,1,1,29.74,8,2.29,2.29,0,0,1,32,5.68"/><path class="cls-2" d="M8,5.68A2.29,2.29,0,1,1,5.68,8,2.29,2.29,0,0,1,8,5.68"/><path class="cls-2" d="M8,2.81H32A5.17,5.17,0,0,1,37.19,8V32A5.17,5.17,0,0,1,32,37.19H8A5.17,5.17,0,0,1,2.81,32V8A5.17,5.17,0,0,1,8,2.81M8,1.67H32A6.32,6.32,0,0,1,38.33,8V32a6.32,6.32,0,0,1-6.3,6.3H8A6.32,6.32,0,0,1,1.67,32V8A6.32,6.32,0,0,1,8,1.67"/><rect class="cls-3" x="27.16" y="2.81" width="1.15" height="34.37"/></g></svg>