<svg xmlns="http://www.w3.org/2000/svg" xmlns:xlink="http://www.w3.org/1999/xlink" viewBox="0 0 1024 1024"><defs><style>.cls-1{fill:url(#Unbenannter_Verlauf_27);}.cls-2,.cls-3{fill:#fff;}.cls-2{fill-rule:evenodd;}</style><linearGradient id="Unbenannter_Verlauf_27" x1="512" x2="512" y2="1024" gradientUnits="userSpaceOnUse"><stop offset="0" stop-color="#00abaa"/><stop offset="1" stop-color="#008988"/></linearGradient></defs><title>LogoZeichenfläche 28</title><g id="abacusLogo"><path class="cls-1" d="M917.33,0H106.67A106.67,106.67,0,0,0,0,106.67V917.33A106.67,106.67,0,0,0,106.67,1024H917.33A106.67,106.67,0,0,0,1024,917.33V106.67A106.67,106.67,0,0,0,917.33,0Z"/><path class="cls-2" d="M365.34,359.28a48.89,48.89,0,1,1-48.9,48.89,48.89,48.89,0,0,1,48.9-48.89"/><path class="cls-2" d="M585.33,359.28a48.89,48.89,0,1,1-48.89,48.89,48.89,48.89,0,0,1,48.89-48.89"/><path class="cls-2" d="M475.33,359.28a48.89,48.89,0,1,1-48.89,48.89,48.89,48.89,0,0,1,48.89-48.89"/><path class="cls-2" d="M768.66,359.28a48.89,48.89,0,1,1-48.89,48.89,48.89,48.89,0,0,1,48.89-48.89"/><path class="cls-2" d="M255.33,359.28a48.89,48.89,0,1,1-48.88,48.89,48.89,48.89,0,0,1,48.88-48.89"/><path class="cls-2" d="M365.34,530.39a48.88,48.88,0,1,1-48.9,48.89,48.88,48.88,0,0,1,48.9-48.89"/><path class="cls-2" d="M585.33,530.39a48.88,48.88,0,1,1-48.89,48.89,48.88,48.88,0,0,1,48.89-48.89"/><path class="cls-2" d="M475.33,530.39a48.88,48.88,0,1,1-48.89,48.89,48.89,48.89,0,0,1,48.89-48.89"/><path class="cls-2" d="M768.66,530.39a48.88,48.88,0,1,1-48.89,48.89,48.89,48.89,0,0,1,48.89-48.89"/><path class="cls-2" d="M255.33,530.39a48.88,48.88,0,1,1-48.88,48.89,48.89,48.89,0,0,1,48.88-48.89"/><path class="cls-2" d="M365.34,701.5a48.89,48.89,0,1,1-48.9,48.9,48.89,48.89,0,0,1,48.9-48.9"/><path class="cls-2" d="M585.33,701.5a48.89,48.89,0,1,1-48.89,48.9,48.89,48.89,0,0,1,48.89-48.9"/><path class="cls-2" d="M475.33,701.5a48.89,48.89,0,1,1-48.89,48.9,48.9,48.9,0,0,1,48.89-48.9"/><path class="cls-2" d="M768.66,701.5a48.89,48.89,0,1,1-48.89,48.9,48.9,48.9,0,0,1,48.89-48.9"/><path class="cls-2" d="M255.33,701.5a48.89,48.89,0,1,1-48.88,48.9,48.9,48.9,0,0,1,48.88-48.9"/><path class="cls-2" d="M365.34,188.16A48.89,48.89,0,1,1,316.44,237a48.89,48.89,0,0,1,48.9-48.89"/><path class="cls-2" d="M585.33,188.16A48.89,48.89,0,1,1,536.45,237a48.89,48.89,0,0,1,48.89-48.89"/><path class="cls-2" d="M475.33,188.16A48.89,48.89,0,1,1,426.45,237a48.89,48.89,0,0,1,48.89-48.89"/><path class="cls-2" d="M768.66,188.16A48.89,48.89,0,1,1,719.77,237a48.89,48.89,0,0,1,48.89-48.89"/><path class="cls-2" d="M255.33,188.16A48.89,48.89,0,1,1,206.45,237a48.89,48.89,0,0,1,48.88-48.89"/><path class="cls-2" d="M255.33,127.05H768.66c60.51,0,110,49.5,110,110v513.3c0,60.5-49.5,110-110,110H255.33c-60.5,0-110-49.5-110-110V237c0-60.5,49.5-110,110-110m0-24.45H768.66c73.95,0,134.45,60.5,134.45,134.44V750.39c0,73.94-60.5,134.44-134.45,134.44H255.33c-73.94,0-134.44-60.5-134.44-134.44V237c0-73.94,60.5-134.44,134.44-134.44"/><rect class="cls-3" x="664.77" y="127.05" width="24.45" height="733.3"/></g></svg>