<svg id="Ebene_1" data-name="Ebene 1" xmlns="http://www.w3.org/2000/svg" viewBox="0 0 25 25"><defs><style>.cls-1{fill:#fff;}</style></defs><title>MessungZeichenfläche 1</title><g id="Messung"><path class="cls-1" d="M0,19.85,5.15,25,25,5.15,19.85,0ZM24.29,5.15,5.15,24.29.71,19.85,1,19.57l.94.94.35-.35-.94-.94.6-.6L4,20.67l.35-.35L2.31,18.25l.6-.6.94.94.35-.35-.94-.94.6-.6,2.06,2.06.35-.35L4.23,16.33l.6-.6.94.94.35-.35-.94-.94.61-.6,2.06,2.06.35-.35L6.15,14.42l.6-.6.94.94L8,14.4l-.94-.94.6-.6,2.06,2.06.35-.35L8.06,12.5l.6-.6.94.94.35-.35L9,11.54l.6-.6L11.68,13l.35-.35L10,10.58l.6-.6.94.94.35-.35-.94-.94.6-.6,2.06,2.06.35-.35L11.9,8.66l.6-.6.94.94.35-.35-.94-.94.6-.6,2.06,2.06.35-.35L13.81,6.75l.6-.6.94.94.35-.35-.94-.94.6-.6,2.06,2.06.35-.35L15.73,4.83l.6-.6.94.94.35-.35-.94-.94.6-.6,2.06,2.06L19.71,5,17.65,2.91l.6-.6.94.94.35-.35L18.61,2l.6-.6,2.06,2.06.35-.35L19.57,1l.28-.28Z"/></g></svg>