<svg id="Ebene_1" data-name="Ebene 1" xmlns="http://www.w3.org/2000/svg" viewBox="0 0 25 25"><defs><style>.cls-1{fill:#fff;}</style></defs><title>OSZeichenfläche 1</title><g id="System"><path class="cls-1" d="M8.53,8.95a1.36,1.36,0,0,0-.35-.72A.9.9,0,0,0,7.56,8a.9.9,0,0,0-.62.2,1.34,1.34,0,0,0-.35.72,7.83,7.83,0,0,0-.16,1.39q0,.87,0,2.19t0,2.19a7.83,7.83,0,0,0,.16,1.39,1.35,1.35,0,0,0,.35.72.9.9,0,0,0,.62.2.9.9,0,0,0,.62-.2,1.34,1.34,0,0,0,.35-.72,7.88,7.88,0,0,0,.16-1.39q0-.87,0-2.19t0-2.2A7.89,7.89,0,0,0,8.53,8.95Z"/><path class="cls-1" d="M12.5,0A12.5,12.5,0,1,0,25,12.5,12.5,12.5,0,0,0,12.5,0ZM12,15.66a5.56,5.56,0,0,1-.79,2.11,3,3,0,0,1-1.45,1.17,6.15,6.15,0,0,1-2.2.35,6.15,6.15,0,0,1-2.2-.35,3,3,0,0,1-1.45-1.17,5.54,5.54,0,0,1-.79-2.11,17.67,17.67,0,0,1-.24-3.13A17.56,17.56,0,0,1,3.12,9.4a5.57,5.57,0,0,1,.79-2.11A3.21,3.21,0,0,1,5.36,6.09a5.73,5.73,0,0,1,2.2-.38,5.68,5.68,0,0,1,2.2.38,3.21,3.21,0,0,1,1.45,1.19A5.54,5.54,0,0,1,12,9.4a17.54,17.54,0,0,1,.24,3.13A17.81,17.81,0,0,1,12,15.66Zm8.92,2.68a5.45,5.45,0,0,1-3.45.95,9.08,9.08,0,0,1-1.88-.17,3.37,3.37,0,0,1-1.38-.61,2.73,2.73,0,0,1-.85-1.13,4.43,4.43,0,0,1-.29-1.73v-.46h3.3v.31a1.75,1.75,0,0,0,.31,1.18,1,1,0,0,0,.81.34,1,1,0,0,0,.82-.37,1.42,1.42,0,0,0,.28-.9,1.34,1.34,0,0,0-.39-1,3.48,3.48,0,0,0-1-.64q-.6-.27-1.29-.54a5.67,5.67,0,0,1-1.29-.72,3.53,3.53,0,0,1-1-1.16,3.86,3.86,0,0,1-.39-1.87,4.09,4.09,0,0,1,1.07-3,4.45,4.45,0,0,1,3.24-1,4.56,4.56,0,0,1,3.24,1,4.11,4.11,0,0,1,1,3.08h-3.2V9.44a2,2,0,0,0-.24-1A.79.79,0,0,0,17.6,8a.93.93,0,0,0-.81.36,1.34,1.34,0,0,0-.26.8,1.31,1.31,0,0,0,.41,1,3.8,3.8,0,0,0,1,.65l1.34.56a6,6,0,0,1,1.34.74,3.69,3.69,0,0,1,1,1.2,4,4,0,0,1,.41,1.94,3.66,3.66,0,0,1-1.2,3Z"/></g></svg>