<svg id="Kofiguration" xmlns="http://www.w3.org/2000/svg" viewBox="0 0 25 25"><defs><style>.cls-1{fill:#fff;}</style></defs><title>Zeichenfläche 9</title><path class="cls-1" d="M23.66,9.24H21.33q-.14-.34-.3-.66L22.7,6.91A1.34,1.34,0,0,0,22.7,5L20,2.3a1.34,1.34,0,0,0-1.89,0L16.33,4.06l-.57-.23V1.33A1.34,1.34,0,0,0,14.42,0H10.57A1.34,1.34,0,0,0,9.24,1.33v2.5l-.57.23L6.91,2.3A1.34,1.34,0,0,0,5,2.3L2.3,5a1.34,1.34,0,0,0,0,1.89L4,8.57q-.16.33-.3.66H1.33A1.34,1.34,0,0,0,0,10.57v3.85a1.34,1.34,0,0,0,1.34,1.34H3.47q.14.43.32.84L2.3,18.09A1.34,1.34,0,0,0,2.3,20L5,22.7a1.34,1.34,0,0,0,1.89,0L8.3,21.31a9.45,9.45,0,0,0,.94.4v2A1.34,1.34,0,0,0,10.57,25h3.85a1.34,1.34,0,0,0,1.34-1.34h0v-2a9.45,9.45,0,0,0,.94-.4l1.39,1.39a1.34,1.34,0,0,0,1.89,0L22.7,20a1.34,1.34,0,0,0,0-1.89l-1.49-1.49q.18-.41.32-.84h2.13A1.34,1.34,0,0,0,25,14.42V10.57a1.34,1.34,0,0,0-1.34-1.34ZM16,12.77A3.53,3.53,0,1,1,12.5,9.24h0A3.53,3.53,0,0,1,16,12.77h0Z"/></svg>